
<svg xmlns="http://www.w3.org/2000/svg" aria-hidden="true" style="position:absolute;width:0;height:0;overflow:hidden">
  <defs>
     <symbol id="icon-logo" viewBox="0 0 35 32">
      <path fill="#ecd979" d="M15.392 11.53h-1.098v-1.113h1.098v1.113z" style="fill:var(--color1, #ecd979)"/>
      <path fill="#ecd979" d="M14.294 11.53h-1.098v-1.113h1.098v1.113zM8.804 11.53H7.706v-1.113h1.098v1.113z" style="fill:var(--color1, #ecd979)"/>
      <path fill="#ecd979" d="M7.707 11.53H6.609v-1.113h1.098v1.113zM6.609 11.53H5.511v-1.113h1.098v1.113zM28.566 10.417h-1.098V9.304h1.098v1.113zM27.468 10.417H26.37V9.304h1.098v1.113zM19.783 10.417h-1.098V9.304h1.098v1.113zM18.685 10.417h-1.098V9.304h1.098v1.113zM16.49 10.417h-1.098V9.304h1.098v1.113z" style="fill:var(--color1, #ecd979)"/>
      <path fill="#ecd979" d="M15.392 10.417h-1.098V9.304h1.098v1.113zM7.707 10.417H6.609V9.304h1.098v1.113zM6.609 10.417H5.511V9.304h1.098v1.113zM28.566 9.304h-1.098V8.191h1.098v1.113zM18.685 9.304h-1.098V8.191h1.098v1.113zM16.49 9.304h-1.098V8.191h1.098v1.113zM6.609 9.304H5.511V8.191h1.098v1.113zM34.055 8.191h-1.098V7.078h1.098v1.113zM1.12 8.191H.022V7.078H1.12v1.113zM34.055 7.078h-1.098V5.965h1.098v1.113zM32.957 7.078h-1.098V5.965h1.098v1.113zM23.076 7.078h-1.098V5.965h1.098v1.113z" style="fill:var(--color1, #ecd979)"/>
      <path fill="#ecd979" d="M21.979 7.078h-1.098V5.965h1.098v1.113zM20.881 7.078h-1.098V5.965h1.098v1.113zM14.294 7.078h-1.098V5.965h1.098v1.113zM13.196 7.078h-1.098V5.965h1.098v1.113z" style="fill:var(--color1, #ecd979)"/>
      <path fill="#ecd979" d="M12.098 7.078H11V5.965h1.098v1.113zM2.217 7.078H1.119V5.965h1.098v1.113z" style="fill:var(--color1, #ecd979)"/>
      <path fill="#ecd979" d="M1.12 7.078H.022V5.965H1.12v1.113zM34.055 5.965h-1.098V4.852h1.098v1.113zM32.957 5.965h-1.098V4.852h1.098v1.113zM31.859 5.965h-1.098V4.852h1.098v1.113zM24.174 5.965h-1.098V4.852h1.098v1.113zM23.076 5.965h-1.098V4.852h1.098v1.113z" style="fill:var(--color1, #ecd979)"/>
      <path fill="#ecd979" d="M21.979 5.965h-1.098V4.852h1.098v1.113zM18.685 5.965h-1.098V4.852h1.098v1.113zM16.49 5.965h-1.098V4.852h1.098v1.113zM13.196 5.965h-1.098V4.852h1.098v1.113z" style="fill:var(--color1, #ecd979)"/>
      <path fill="#ecd979" d="M12.098 5.965H11V4.852h1.098v1.113zM11 5.965H9.902V4.852H11v1.113zM3.315 5.965H2.217V4.852h1.098v1.113zM2.217 5.965H1.119V4.852h1.098v1.113z" style="fill:var(--color1, #ecd979)"/>
      <path fill="#ecd979" d="M1.12 5.965H.022V4.852H1.12v1.113zM32.957 4.852h-1.098V3.739h1.098v1.113zM31.859 4.852h-1.098V3.739h1.098v1.113z" style="fill:var(--color1, #ecd979)"/>
      <path fill="#ecd979" d="M30.762 4.852h-1.098V3.739h1.098v1.113zM25.272 4.852h-1.098V3.739h1.098v1.113zM24.174 4.852h-1.098V3.739h1.098v1.113zM23.076 4.852h-1.098V3.739h1.098v1.113zM19.783 4.852h-1.098V3.739h1.098v1.113zM18.685 4.852h-1.098V3.739h1.098v1.113zM16.49 4.852h-1.098V3.739h1.098v1.113z" style="fill:var(--color1, #ecd979)"/>
      <path fill="#ecd979" d="M15.392 4.852h-1.098V3.739h1.098v1.113zM12.098 4.852H11V3.739h1.098v1.113zM11 4.852H9.902V3.739H11v1.113z" style="fill:var(--color1, #ecd979)"/>
      <path fill="#ecd979" d="M9.903 4.852H8.805V3.739h1.098v1.113zM4.413 4.852H3.315V3.739h1.098v1.113z" style="fill:var(--color1, #ecd979)"/>
      <path fill="#ecd979" d="M3.315 4.852H2.217V3.739h1.098v1.113zM2.217 4.852H1.119V3.739h1.098v1.113zM31.859 3.739h-1.098V2.626h1.098v1.113z" style="fill:var(--color1, #ecd979)"/>
      <path fill="#ecd979" d="M30.762 3.739h-1.098V2.626h1.098v1.113zM29.664 3.739h-1.098V2.626h1.098v1.113zM20.881 3.739h-1.098V2.626h1.098v1.113zM19.783 3.739h-1.098V2.626h1.098v1.113zM18.685 3.739h-1.098V2.626h1.098v1.113zM16.49 3.739h-1.098V2.626h1.098v1.113z" style="fill:var(--color1, #ecd979)"/>
      <path fill="#ecd979" d="M15.392 3.739h-1.098V2.626h1.098v1.113z" style="fill:var(--color1, #ecd979)"/>
      <path fill="#ecd979" d="M14.294 3.739h-1.098V2.626h1.098v1.113zM5.511 3.739H4.413V2.626h1.098v1.113zM4.413 3.739H3.315V2.626h1.098v1.113z" style="fill:var(--color1, #ecd979)"/>
      <path fill="#ecd979" d="M3.315 3.739H2.217V2.626h1.098v1.113zM35.153 2.626h-1.098V1.513h1.098v1.113zM30.762 2.626h-1.098V1.513h1.098v1.113zM29.664 2.626h-1.098V1.513h1.098v1.113zM28.566 2.626h-1.098V1.513h1.098v1.113zM20.881 2.626h-1.098V1.513h1.098v1.113zM19.783 2.626h-1.098V1.513h1.098v1.113zM15.392 2.626h-1.098V1.513h1.098v1.113z" style="fill:var(--color1, #ecd979)"/>
      <path fill="#ecd979" d="M14.294 2.626h-1.098V1.513h1.098v1.113zM6.609 2.626H5.511V1.513h1.098v1.113zM5.511 2.626H4.413V1.513h1.098v1.113zM4.413 2.626H3.315V1.513h1.098v1.113zM35.153 1.513h-1.098V.4h1.098v1.113zM34.055 1.513h-1.098V.4h1.098v1.113zM29.664 1.513h-1.098V.4h1.098v1.113zM28.566 1.513h-1.098V.4h1.098v1.113zM27.468 1.513H26.37V.4h1.098v1.113zM20.881 1.513h-1.098V.4h1.098v1.113zM14.294 1.513h-1.098V.4h1.098v1.113zM7.707 1.513H6.609V.4h1.098v1.113zM6.609 1.513H5.511V.4h1.098v1.113zM5.511 1.513H4.413V.4h1.098v1.113zM1.12 1.513H.022V.4H1.12v1.113z" style="fill:var(--color1, #ecd979)"/>
    </symbol>
    <symbol id="icon-facebook" viewBox="0 0 32 32">
      <path d="M19.52 4.64h.96v3.6h-1.2c-.48 0-.96 0-1.2.24s-.24.48-.24 1.04v1.28h2.64v3.04h-2.64v13.2h-4.08V13.76H11.6v-3.04h2.16V9.68c0-1.76.24-3.04.72-3.6.72-1.04 2.16-1.52 4.32-1.52.24.08.48.08.72.08z"/>
    </symbol>
    <symbol id="icon-instagram" viewBox="0 0 32 32">
      <path d="M28.717 10.756a9.264 9.264 0 0 0-.596-3.145 6.547 6.547 0 0 0-3.743-3.737 9.42 9.42 0 0 0-3.108-.596c-1.368-.061-1.801-.078-5.273-.078s-3.917 0-5.274.078a9.418 9.418 0 0 0-3.106.596 6.541 6.541 0 0 0-3.743 3.737 9.288 9.288 0 0 0-.596 3.101c-.061 1.367-.08 1.8-.08 5.265s0 3.909.08 5.265a9.335 9.335 0 0 0 .596 3.104 6.548 6.548 0 0 0 3.744 3.735 9.37 9.37 0 0 0 3.106.639c1.369.061 1.803.08 5.274.08s3.916 0 5.274-.08a9.357 9.357 0 0 0 3.108-.595 6.555 6.555 0 0 0 3.743-3.737 9.35 9.35 0 0 0 .596-3.104c.061-1.365.08-1.798.08-5.265-.003-3.466-.003-3.906-.082-5.264zM15.99 22.531c-3.631 0-6.572-2.936-6.572-6.561s2.941-6.561 6.572-6.561c3.628 0 6.572 2.936 6.572 6.561s-2.944 6.561-6.572 6.561zm6.833-11.835a1.53 1.53 0 1 1 0-3.06 1.53 1.53 0 1 1 0 3.06z"/>
      <path d="M15.992 19.976a4.004 4.004 0 1 0 0-8.009 4.004 4.004 0 0 0 0 8.009z"/>
    </symbol>
    <symbol id="icon-youtube" viewBox="0 0 32 32">
      <path d="M24.24 6c-1.36-.08-4.16-.16-8.4-.16h-.56c-4.08 0-6.8.08-8.16.24-1.84.16-3.12.64-3.84 1.28-.64.56-1.12 1.6-1.28 2.96-.08.88-.16 2.72-.16 5.52v.4c0 2.64.08 4.48.24 5.36.24 1.28.64 2.24 1.44 2.8.8.64 2.16 1.04 4.08 1.2 1.36.08 4.16.16 8.4.16h.56c4.08 0 6.8-.08 8.16-.24 1.84-.16 3.12-.64 3.84-1.28.64-.56 1.12-1.6 1.28-2.96.08-.88.16-2.72.16-5.52v-.4c0-2.64-.08-4.48-.24-5.36-.24-1.28-.64-2.24-1.44-2.8-.8-.64-2.16-1.04-4.08-1.2zm-3.12 9.84-8.8 5.28V10.56l8.8 5.28z"/>
    </symbol>
    <symbol id="icon-star-sun" viewBox="0 0 32 32">
      <path d="M15.434.333a.653.653 0 0 1 1.133 0l1.84 3.203c.19.33.621.429.935.214l3.081-2.107a.653.653 0 0 1 1.02.496l.239 3.642a.653.653 0 0 0 .754.602l3.69-.584c.504-.08.9.423.706.894l-1.386 3.36a.653.653 0 0 0 .421.876l3.555 1.036a.653.653 0 0 1 .252 1.115l-2.731 2.433a.654.654 0 0 0 0 .975l2.731 2.433a.653.653 0 0 1-.252 1.115l-3.555 1.036a.653.653 0 0 0-.421.876l1.386 3.36a.653.653 0 0 1-.706.894l-3.69-.584a.653.653 0 0 0-.754.602l-.239 3.642a.653.653 0 0 1-1.02.496l-3.081-2.107a.653.653 0 0 0-.935.214l-1.84 3.203a.653.653 0 0 1-1.133 0l-1.84-3.203a.653.653 0 0 0-.935-.214l-3.081 2.107a.652.652 0 0 1-1.02-.496l-.239-3.642a.653.653 0 0 0-.754-.602l-3.69.584a.653.653 0 0 1-.706-.894l1.386-3.36a.653.653 0 0 0-.421-.876L.579 20.036a.653.653 0 0 1-.252-1.115l2.731-2.433a.654.654 0 0 0 0-.975L.327 13.08a.653.653 0 0 1 .252-1.115l3.555-1.036a.653.653 0 0 0 .421-.876l-1.386-3.36a.653.653 0 0 1 .706-.894l3.69.584c.38.06.729-.219.754-.602l.239-3.642a.653.653 0 0 1 1.02-.496l3.081 2.107a.653.653 0 0 0 .935-.214l1.84-3.203z"/>
    </symbol>
    <symbol id="icon-arrow" viewBox="0 0 32 32">
      <path d="M27.766 17.957a42.712 42.712 0 0 1-.337-3.49c-.022-1.04.017-1.94.119-2.7L2.255 26.37l-1.197-2.073L26.351 9.694a22.284 22.284 0 0 1-2.426-1.297A48.166 48.166 0 0 1 21.1 6.409l1.519-.877c3.209 1.349 6.143 2.024 8.804 2.023l.513.888c-1.35 2.271-2.233 5.149-2.65 8.636l-1.519.877z"/>
    </symbol>
    <symbol id="icon-vector" viewBox="0 0 34 32">
      <path stroke-linecap="round" stroke-linejoin="round" stroke-width="2.526" d="m16.842 2.807 4.337 8.786 9.698 1.418-7.018 6.835 1.656 9.656-8.674-4.562-8.674 4.562 1.656-9.656-7.018-6.835 9.698-1.418 4.337-8.786z"/>
    </symbol>

    <symbol id="icon-form-search" viewBox="0 0 32 32">
       <path d="M16 16c2.947 0 5.333-2.387 5.333-5.333s-2.387-5.333-5.333-5.333c-2.947 0-5.333 2.387-5.333 5.333s2.387 5.333 5.333 5.333zM16 18.667c-3.56 0-10.667 1.787-10.667 5.333v1.333c0 0.733 0.6 1.333 1.333 1.333h18.667c0.733 0 1.333-0.6 1.333-1.333v-1.333c0-3.547-7.107-5.333-10.667-5.333z"></path>
    </symbol>
    
     <symbol id="icon-downloads" viewBox="0 0 30 32">
      <path d="M24.024 27.564c.63 0 1.139-.509 1.139-1.139V19.37h2.715v7.224a3.683 3.683 0 0 1-3.685 3.685H4.484a3.683 3.683 0 0 1-3.685-3.685V19.37h2.715v7.055c0 .63.509 1.139 1.139 1.139h19.37zM8.994 4.291h10.642v9.527h4.073l-9.382 9.164-9.382-9.164h4.073V4.291h-.024z"/>
    </symbol>

    <symbol id="icon-heart" viewBox="0 0 34 32">
      <path d="M17.772 30.178c3.471-5.76 6.105-7.065 11.495-11.003 4.726-3.495 4.726-9.083 1.994-12.431-3.545-4.258-10.585-3.963-13.489 1.428-2.905-5.391-9.92-5.711-13.465-1.428-2.732 3.348-2.732 8.935 1.994 12.431 5.391 3.938 8.025 5.243 11.471 11.003z"/>
    </symbol>

    <symbol id="icon-search" viewBox="0 0 39 32">
      <path d="M17.233 25.521c-7.659 0-13.771-4.538-16.682-11.384C3.489 7.291 9.6 2.753 17.233 2.753s13.771 4.538 16.708 11.384c-2.938 6.846-9.075 11.384-16.708 11.384zm0-2.728c6.059 0 11.279-3.541 13.718-8.656-2.439-5.115-7.659-8.656-13.718-8.656-6.033 0-11.252 3.541-13.692 8.656a15.119 15.119 0 0 0 13.692 8.656zm-6.348-8.655c0-3.515 2.833-6.348 6.321-6.348a6.353 6.353 0 0 1 6.348 6.348c0 3.515-2.859 6.348-6.348 6.348s-6.321-2.859-6.321-6.348zm6.715-1.6c0 1.102.866 1.993 1.993 1.993 1.075 0 1.967-.892 1.967-1.993 0-1.075-.866-1.967-1.967-1.967s-1.993.866-1.993 1.967z"/>
    </symbol>
  </defs>
</svg>
